<svg id="Layer_1" data-name="Layer 1" xmlns="http://www.w3.org/2000/svg" xmlns:xlink="http://www.w3.org/1999/xlink" viewBox="0 0 280 300"><defs><style>.cls-1{fill:none;}.cls-2{fill:#f3e511;}.cls-3{clip-path:url(#clip-path);}.cls-4{fill:#f47920;}.cls-5{fill:#ed2224;}.cls-6{clip-path:url(#clip-path-2);}.cls-7{fill:#000f9f;}</style><clipPath id="clip-path"><polygon class="cls-1" points="99.22 186.22 101.62 188.62 105.22 200.61 106.42 186.22 110.02 204.21 110.02 181.43 112.42 187.42 116.01 204.21 116.01 181.43 118.41 183.82 122.01 204.21 125.61 176.63 133.54 207.71 134 188.62 136.4 181.43 138.8 211.41 146 181.43 148.4 206.61 154.39 180.22 160.39 209.01 161.59 187.42 165.19 180.22 166.38 207.81 172.38 181.43 175.98 193.42 177.18 182.62 180.78 189.82 180.78 167.03 177.18 176.63 175.98 156.24 173.58 171.83 171.18 167.03 169.98 150.24 163.99 173.03 162.79 168.23 159.19 132.25 155.59 163.44 153.19 173.03 148.4 140.65 143.6 168.23 141.2 175.43 140 125.89 132.8 181.43 125.61 131.05 122.01 174.23 119.61 169.43 117.21 140.65 116.01 169.43 112.42 177.83 110.02 149.04 107.62 171.83 104.02 165.83 104.02 182.62 99.22 164.63 99.22 186.22"/></clipPath><clipPath id="clip-path-2"><path class="cls-1" d="M140,81.73c-15.91,0-30.41,5-41.11,13.31s-17.66,20.27-17.66,33.54v4.8c-10.62,5.38-18,19.5-18,36.05,0,21.19,12.06,38.38,27.59,38.38V128.58c0-9.94,5.14-19.09,14-26S126.12,91.33,140,91.33s26.36,4.39,35.19,11.28,14,16,14,26v79.23c15.53,0,27.59-17.19,27.59-38.38,0-16.55-7.37-30.67-18-36.05v-4.8c0-13.27-7-25.2-17.66-33.54S155.91,81.73,140,81.73ZM94.43,132.25v75.56a6.58,6.58,0,0,0,6-3.6V134.65A9.14,9.14,0,0,0,94.43,132.25Zm91.14,0a9.14,9.14,0,0,0-6,2.4v69.56a6.58,6.58,0,0,0,6,3.6Z"/></clipPath></defs><title>audacity logo</title><path class="cls-2" d="M136.59,124.16c-2.75,6.88-5.4,18.28-8.6,5.17-2.4-9.31-7.53,5.84-11.26,8.43-7.53,5.72-11.69,13.78-15,22.41-8.85-7.52-5.53,4.56-6.07,10.46.48,8.85-1,18.53.71,26.87,7,6.12,12.1,15.78,22.55,15.65,7.14,2.49,6.25-8.32,12.73.65,6,8.17,9.65,3.39,13.54-.63,5.69,8.71,7.43-10.42,12.23-1.84,7.42,2.89,14.07,4.26,15.28-5.53,1.53-7.73,14.82-7.88,11.7-17.18-.43-9.64.87-20-.63-29.2-5-3.92-8.92-13-14.66-13.79-7.09,3.45-4.36-11.74-7.28-16.21-1-11.73-3.47-6.43-6.2,1.62-1.51,11.59-7.87,6.06-11.12-1.52C141.59,127.09,138.3,114.26,136.59,124.16Z"/><g class="cls-3"><rect class="cls-4" x="96.83" y="125.06" width="86.35" height="87.55"/><path class="cls-5" d="M98,169.43l9.6,6,3.6-10.8,6,7.2,7.2-12,2.4,14.39,2.4-9.6,3.59,7.2,1.2-7.2s3.6,9.6,3.6,8.4,4.8-18,4.8-18l4.8,15.59,7.19-14.39,3.6,15.59L164,161l3.59,10.79,6-6,7.2,7.2v9.59l-4.8,3.6-7.2-2.4-4.79-2.4-1.2,12-2.4-12-4.8,10.8-7.19-10.8-2.4,10.8-4.8-7.2-6,15.59-3.6-18-7.19,3.6-4.8-7.19-2.4,12-4.79-6-4.8,6-2.4-3.6-7.2,1.2Z"/></g><g class="cls-6"><path class="cls-7" d="M140,81.73c-15.91,0-30.41,5-41.11,13.31s-17.66,20.27-17.66,33.54v4.8c-10.62,5.38-18,19.5-18,36.05,0,21.19,12.06,38.38,27.59,38.38V128.58c0-9.94,5.14-19.09,14-26S126.12,91.33,140,91.33s26.36,4.39,35.19,11.28,14,16,14,26v79.23c15.53,0,27.59-17.19,27.59-38.38,0-16.55-7.37-30.67-18-36.05v-4.8c0-13.27-7-25.2-17.66-33.54S155.91,81.73,140,81.73ZM94.43,132.25v75.56a6.58,6.58,0,0,0,6-3.6V134.65A9.14,9.14,0,0,0,94.43,132.25Zm91.14,0a9.14,9.14,0,0,0-6,2.4v69.56a6.58,6.58,0,0,0,6,3.6Z"/></g></svg>