<svg width="1080" height="1092" viewBox="0 0 1080 1092" fill="none" xmlns="http://www.w3.org/2000/svg">
<path d="M374 891.5L243.5 1023C243.5 1023 395.662 1074.83 497 1080C659.405 1088.28 903 987.5 903 987.5L784 791.5L513 911L374 891.5Z" fill="#4D4A4D"/>
<path d="M315.5 1035.5L262.5 1032.5L315.5 955L397.5 904.5L476 931.5L655 880.5L765.5 807.5L791 840.5C791 840.5 722.374 897.476 672.5 924.5C605.771 960.657 489 988.5 489 988.5L407 958C407 958 369.436 968.087 351 983.5C332.136 999.271 315.5 1035.5 315.5 1035.5Z" fill="#403E40"/>
<path d="M341 421.5L301.5 500L373 643.5V766L344 822.5L446 885L658.5 847.5L728.5 762L837 632.5L815.5 619L741.5 454L410.5 379L341 421.5Z" fill="#36221C"/>
<path d="M401 653C407.171 691.957 407.5 753.5 407.5 753.5L463 829.5L607 753.5V698L710.5 634L606.5 351L407.5 360.5L364.5 421L344 505.5C344 505.5 391.216 591.236 401 653Z" fill="#535053"/>
<path d="M426 542L354.5 503L408 520L404 448L426 522H445.5L566 496L570.5 498.5L426 542Z" fill="#AAA7A7"/>
<path d="M432 557L367.5 535L426.5 569.5C426.5 569.5 450.992 639.421 460 688C469.193 737.574 460 815.5 460 815.5H472.5C472.5 815.5 479.881 727.778 472.5 681C464.963 633.238 442 571.5 442 571.5L584.5 518L432 557Z" fill="#AAA7A7"/>
<path d="M406.5 754V730L462 801.5L598 740.5L608.5 652V754L462 833L406.5 754Z" fill="#AAA7A7"/>
<path d="M511 670.5C506.509 630.951 486.5 576 486.5 576C486.5 576 511.588 630.069 517 670.5C522.955 714.986 506.5 766.5 506.5 766.5C506.5 766.5 515.812 712.882 511 670.5Z" fill="#AAA7A7"/>
<path d="M548.294 651.299C544.116 614.346 525.5 563 525.5 563C525.5 563 548.965 610.222 554 648C559.54 689.567 544.108 741 544.108 741C544.108 741 552.772 690.901 548.294 651.299Z" fill="#AAA7A7"/>
<path d="M584.624 637.819C580.569 601.903 562.5 552 562.5 552C562.5 552 585.113 597.783 590 634.5C595.377 674.899 580.56 725 580.56 725C580.56 725 588.97 676.308 584.624 637.819Z" fill="#AAA7A7"/>
<path d="M421 674.5C417.52 634.511 391.5 576 391.5 576C391.5 576 412.228 635.067 417.5 674.5C420.765 698.924 417.5 725.5 417.5 725.5C417.5 725.5 423.189 699.655 421 674.5Z" fill="#AAA7A7"/>
<path d="M485.5 481V521.5H500.5L485.5 481Z" fill="#AAA7A7"/>
<path d="M381.5 483V514H389.5L381.5 483Z" fill="#AAA7A7"/>
<path d="M222 899L107 963.5L74 1050L153.5 1021L214.5 1061.5L297.5 1021C297.5 1021 328.398 970.917 341 963.5C373.971 944.094 403.5 928.5 403.5 928.5L474 957.5C474 957.5 600.561 921.701 673 886.5C791.073 829.124 945.5 696 945.5 696L908.5 649L835 631C835 631 787.055 659.339 760.5 691.5C734.194 723.36 700.804 775.5 687 787.5C620.289 845.496 617.023 831.118 567 845.5C531.644 855.665 474 860.5 474 860.5L312 796C312 796 227.736 827.355 214.5 860.5C205.955 881.898 222 899 222 899Z" fill="#815144"/>
<path d="M379 414.88L308 493.88C308 493.88 377.287 590.311 390 662.38C398.039 707.953 390 780.88 390 780.88L414 858.88L352 798.88C352 798.88 371.899 723.788 367.5 675.38C360.933 603.114 292.5 505.38 292.5 505.38L390 257.88C390 257.88 466.97 204.308 524 196.38C570.648 189.894 644 208.38 644 208.38C644 208.38 701.307 237.377 727 267.88C750.46 295.731 769.5 350.88 769.5 350.88V466.88C769.5 466.88 808.113 516.164 815.5 553.88C820.417 578.982 815.5 619.38 815.5 619.38C815.5 619.38 739.929 677.318 707.5 727.38C686.176 760.299 665 818.38 665 818.38L601.5 874.38L653.5 686.88C653.5 686.88 636.157 551.769 580 493.88C521.275 433.343 379 414.88 379 414.88Z" fill="#815144"/>
<path d="M367.5 535C363.333 523.833 355.7 507.4 354.5 503L426.5 542L570.5 498.5L584 518L432.5 560L367.5 535Z" fill="black"/>
<path d="M977.5 920.5C1007.16 898.714 1070 902.5 1070 902.5C1070 902.5 1071.81 878.925 1070 864C1064.44 818.287 1013.5 760.5 1013.5 760.5C1013.5 760.5 974.217 693.687 932.5 673C898.277 656.029 836 657 836 657L806.5 673C806.5 673 770.016 730.781 757 772C741.546 820.94 741.5 902.5 741.5 902.5C741.5 902.5 813.278 998.741 881 1008.5C900.906 1011.37 932.5 1008.5 932.5 1008.5C932.5 1008.5 946.392 943.351 977.5 920.5Z" fill="#535053"/>
<path d="M756 773C746.754 805.053 744.5 855 744.5 855C744.5 855 752.848 805.161 764 775C777.787 737.713 810.5 681.5 810.5 681.5L836 657L807 672.5C807 672.5 767.801 732.09 756 773Z" fill="#AAA7A7"/>
<path d="M821 720.5C781.375 744.93 751 813.5 751 813.5C751 813.5 790.803 751.221 828.5 726.5C858.336 706.934 913.5 693 913.5 693C913.5 693 852.007 701.383 821 720.5Z" fill="#AAA7A7"/>
<path d="M873.5 1006.5C896.953 1011.03 932.5 1008.5 932.5 1008.5C932.5 1008.5 894.809 1005.13 872 997.5C839.799 986.725 799 952 799 952L749.5 897.5C749.5 897.5 748.06 869.406 749.5 851.5C751.023 832.557 757.5 803.5 757.5 803.5L753.5 786.5C753.5 786.5 745.423 822.223 743 845.5C740.715 867.46 741 902 741 902L796 962.5C796 962.5 838.672 999.771 873.5 1006.5Z" fill="#AAA7A7"/>
<path d="M517.5 1091.5C428.171 1087.52 295 1039 295 1039C295 1039 433.167 1083.28 517.5 1085.5C631.582 1088.51 811 1021 811 1021C811 1021 630.55 1096.54 517.5 1091.5Z" fill="#AAA7A7"/>
<path d="M366 534.5L355.5 506L370 534.5L433 560.5L366 534.5Z" fill="#AAA7A7"/>
<path d="M376 405L307.5 494L379 415C379 415 443.134 424.229 481.5 439C525.756 456.039 586.5 500 586.5 500C586.5 500 530.033 449.945 485 431C444.722 414.055 376 405 376 405Z" fill="#B99164"/>
<path d="M769.5 467L774 473C774 473 741.929 477.233 723 485C705.341 492.245 681 510 681 510C681 510 702.086 487.757 719.5 479C737.771 469.812 769.5 467 769.5 467Z" fill="#36221C"/>
<path d="M624.378 485.5C622.403 470.989 624.378 448 624.378 448C624.378 448 625.569 473.631 630.877 488C640.924 515.195 665.377 555 665.377 555C665.377 555 682.488 585.595 686.878 606C692.08 630.18 686.878 662.5 686.878 662.5C686.878 662.5 686.979 630.253 681.878 610.5C676.652 590.267 660.378 561.5 660.378 561.5C660.378 561.5 628.805 518.041 624.378 485.5Z" fill="#36221C"/>
<path d="M398 273L375.5 409H385L398 273Z" fill="#B99164"/>
<path d="M302.5 913.5L216.5 890.5L222 900L302.5 913.5Z" fill="#36221C"/>
</svg>
